<?xml version="1.0" encoding="utf-8"?>
<!-- Generator: Adobe Illustrator 15.0.0, SVG Export Plug-In . SVG Version: 6.00 Build 0)  -->
<!DOCTYPE svg PUBLIC "-//W3C//DTD SVG 1.1//EN" "http://www.w3.org/Graphics/SVG/1.1/DTD/svg11.dtd">
<svg version="1.1" id="Layer_1" xmlns="http://www.w3.org/2000/svg" xmlns:xlink="http://www.w3.org/1999/xlink" x="0px" y="0px"
	 width="357.17px" height="164.41px" viewBox="0 0 357.17 164.41" enable-background="new 0 0 357.17 164.41" xml:space="preserve">
<g>
	<g>
		<polygon fill="#FFFFFF" points="170.608,129.826 167.612,129.826 159.875,129.826 156.866,129.826 156.779,129.826 
			156.452,134.095 157.89,134.095 159.094,132.161 162.089,132.161 162.089,146.938 165.39,146.938 165.39,132.161 168.366,132.161 
			169.597,134.095 171.034,134.095 170.708,129.826 		"/>
		<polygon fill="#FFFFFF" points="295.796,129.826 292.797,129.826 285.063,129.826 282.049,129.826 281.967,129.826 
			281.64,134.095 283.076,134.095 284.279,132.161 287.276,132.161 287.276,146.938 290.576,146.938 290.576,132.161 
			293.552,132.161 294.782,134.095 296.22,134.095 295.893,129.826 		"/>
		<polygon fill="#FFFFFF" points="234.982,130.921 235.891,131.935 230.107,138.195 230.107,132.153 231.469,130.921 
			231.469,129.826 225.436,129.826 225.436,130.921 226.8,132.153 226.8,146.938 230.107,146.938 230.107,141.89 232.857,138.901 
			235.545,140.901 237.298,146.938 240.614,146.938 238.401,139.173 234.895,136.715 239.115,132.153 241.184,130.921 
			241.184,129.826 234.982,129.826 		"/>
		<polygon fill="#FFFFFF" points="119.54,130.921 120.449,131.935 114.667,138.195 114.667,132.153 116.028,130.921 
			116.028,129.826 109.993,129.826 109.993,130.921 111.358,132.153 111.358,146.938 114.667,146.938 114.667,141.89 
			117.417,138.901 120.104,140.901 121.858,146.938 125.175,146.938 122.962,139.173 119.452,136.715 123.675,132.153 
			125.743,130.921 125.743,129.826 119.54,129.826 		"/>
		<polygon fill="#FFFFFF" points="275.225,130.921 276.573,132.153 276.573,146.938 279.884,146.938 279.884,129.826 
			275.225,129.826 		"/>
		<polygon fill="#FFFFFF" points="91.208,129.826 88.209,129.826 80.473,129.826 77.464,129.826 77.377,129.826 77.05,134.095 
			78.488,134.095 79.691,132.161 82.686,132.161 82.686,146.938 85.987,146.938 85.987,132.161 88.962,132.161 90.193,134.095 
			91.63,134.095 91.307,129.826 		"/>
		<polygon fill="#FFFFFF" points="42.841,132.161 44.042,134.095 45.482,134.095 45.152,129.826 32.47,129.826 32.47,130.921 
			33.877,132.161 33.877,146.938 45.152,146.938 45.482,142.667 44.042,142.667 42.841,144.607 37.179,144.607 37.179,139.353 
			42.63,139.353 42.63,137.021 37.179,137.021 37.179,132.161 		"/>
		<polygon fill="#FFFFFF" points="58.105,132.161 59.657,134.095 61.096,134.095 60.771,129.826 48.085,129.826 48.085,130.921 
			49.494,132.161 49.494,146.938 60.771,146.938 61.096,142.667 59.657,142.667 58.105,144.607 52.796,144.607 52.796,139.353 
			58.244,139.353 58.244,137.021 52.796,137.021 52.796,132.161 		"/>
		<polygon fill="#FFFFFF" points="92.851,130.921 94.212,132.153 94.212,146.938 97.515,146.938 97.515,129.826 92.851,129.826 		
			"/>
		<path fill="#FFFFFF" d="M71.381,137.04l-1.978-0.475c-1.066-0.297-1.933-0.97-1.933-2.427c0-0.97,0.803-2.268,2.764-2.268
			c0.742,0,2.002,0.138,2.564,0.327l1.188,1.899h1.439l-0.299-3.795c-1.317-0.475-3.181-0.762-4.978-0.762
			c-4.402,0-6.054,2.628-6.054,4.863c0,2.068,0.971,4.121,4.166,4.945l2.259,0.586c1.849,0.516,2.214,1.399,2.214,2.565
			c0,1.123-0.832,2.396-2.741,2.396c-1.12,0-3.087-0.343-3.846-0.714l-0.953-1.51h-1.448l0.31,3.78h0.009
			c1.849,0.531,4.038,0.769,5.746,0.769c4.417,0,6.199-2.184,6.199-5.151C76.009,138.809,74.008,137.795,71.381,137.04z"/>
		<path fill="#FFFFFF" d="M137.548,130.923l1.392,1.238v8.403c0,2.264-0.589,4.329-3.077,4.329h-0.678
			c-2.486,0-3.192-2.065-3.192-4.329v-8.411l1.363-1.23v-1.097h-6.034v1.097l1.363,1.23v8.965c0,3.421,1.374,6.104,6.472,6.104
			h0.706c5.101,0,6.382-2.683,6.382-6.104v-8.957l1.34-1.238v-1.097h-6.038V130.923z"/>
		<path fill="#FFFFFF" d="M182.313,130.923l1.39,1.238v8.403c0,2.264-0.587,4.329-3.074,4.329h-0.679
			c-2.485,0-3.193-2.065-3.193-4.329v-8.411l1.363-1.23v-1.097h-6.031v1.097l1.363,1.23v8.965c0,3.421,1.374,6.104,6.472,6.104
			h0.705c5.102,0,6.384-2.683,6.384-6.104v-8.957l1.34-1.238v-1.097h-6.039V130.923z"/>
		<path fill="#FFFFFF" d="M200.804,130.923l1.393,1.238v8.403c0,2.264-0.593,4.329-3.078,4.329h-0.675
			c-2.489,0-3.193-2.065-3.193-4.329v-8.411l1.363-1.23v-1.097h-6.036v1.097l1.362,1.23v8.965c0,3.421,1.375,6.104,6.474,6.104
			h0.705c5.103,0,6.382-2.683,6.382-6.104v-8.957l1.341-1.238v-1.097h-6.037V130.923z"/>
		<path fill="#FFFFFF" d="M244.955,129.826v1.095l1.384,1.24l-3.538,14.776h3.305l1.333-5.642h6.099l1.319,5.642h3.302
			l-4.116-17.111H244.955z M248.026,138.966l1.629-6.805h1.658l1.622,6.805H248.026z"/>
		<path fill="#FFFFFF" d="M306.877,129.826H297.9v1.095l1.391,1.24l-3.54,14.776h3.254l1.325-5.642h6.099l1.322,5.642h3.26
			l-4.134-17.08V129.826z M300.923,138.966l1.625-6.805h1.659l1.623,6.805H300.923z"/>
		<path fill="#FFFFFF" d="M222.747,135.363c0-3.46-2.24-5.514-6.696-5.535v-0.002h-7.455v1.095l1.366,1.232v14.784h3.302v-6.119
			h3.311l3.029,6.119h3.533l-3.415-6.708C221.541,139.495,222.747,137.662,222.747,135.363z M215.972,138.49h-2.708v-6.337h2.708
			v0.008c2.385,0,3.506,1.54,3.506,3.202C219.478,137.037,218.356,138.49,215.972,138.49z"/>
		<path fill="#FFFFFF" d="M267.308,129.828v-0.002h-7.261v1.095l1.379,1.232v14.784h3.306v-5.248h2.607
			c4.441-0.028,6.596-2.163,6.596-5.931C273.935,131.979,271.775,129.841,267.308,129.828z M267.245,139.353h-2.514v-7.199
			l2.514,0.008c2.384,0,3.42,1.556,3.42,3.598C270.665,137.8,269.629,139.353,267.245,139.353z"/>
		<polygon fill="#FFFFFF" points="155.984,144.607 150.621,144.607 150.621,132.153 152.036,130.921 152.036,129.826 
			145.953,129.826 145.953,130.921 147.322,132.153 147.322,146.938 158.642,146.938 158.648,146.938 158.974,142.667 
			157.539,142.667 		"/>
		<polygon fill="#FFFFFF" points="321.736,144.607 316.374,144.607 316.374,132.153 317.788,130.921 317.788,129.826 
			311.707,129.826 311.707,130.921 313.075,132.153 313.075,146.938 324.396,146.938 324.4,146.938 324.726,142.667 
			323.291,142.667 		"/>
	</g>
	<g>
		<path fill="#FFFFFF" d="M82.467,107.977c-0.022-2.414-1.454-4.534-1.384-5.835c0.104-1.951,1.378-3.56,1.763-4.218
			c0.637-1.088,1.146-2.599,1.385-3.122c1.121-2.451,2.373-3.425,2.518-5.461c0.126-1.765-0.524-2.751-1.175-3.61
			c-0.601-0.798-2.173-4.152-5.162-7.683c-3.232-3.821-5.544-4.61-5.709-5.058c-0.229-0.63,1.379-1.937,1.491-2.896
			c0.209-1.827-1.049-3.946-3.17-4.072c-2.12-0.126-2.808,0.208-3.189,0.483c-0.587,0.418-0.902,1.258-1.365,1.635
			c-0.298,0.247,0,0.947-0.146,1.365c-0.097,0.276-0.295,0.464-0.295,0.966c0,0.429,0.426,2.074,0.683,2.852
			c-1.014-0.168-2.53-0.517-3.37-0.639c-1.168-0.166-3.657-0.352-4.255-0.38c-0.856-0.04-2.895-0.293-4.388-0.349
			c6.203-2.091,10.675-7.945,10.675-14.854c0-8.662-7.021-15.685-15.687-15.685C43.024,41.417,36,48.439,36,57.101
			c0,8.536,6.823,15.465,15.31,15.666c-0.001,0.003-0.001,0.003-0.001,0.003c-0.214,0.346-0.726,0.953-0.499,1.097
			c0.238,0.149,0.704-0.454,0.977-0.55c0.297-0.101,0.528-0.267,0.655-0.297c0.329-0.076,0.718,0.056,0.884,0.204
			c0.32,0.284-0.574,0.226-0.968,0.392c-0.176,0.074-0.46,0.22-0.417,0.394c0.06,0.239,0.548,0.211,1.168,0.059
			c0.25-0.062,1.124,0.31,1.895,0.153c0.835-0.164,1.491-0.7,1.801-0.726c0.229-0.017,0.447,0.12,1.443,0.292
			c0.996,0.168,3.772,0.987,5.399,1.44c2.031,0.56,4.007,0.666,5.616,0.955c0.442,1.199,1.239,2.759,2.5,3.972
			c-0.013,0.207-0.069,0.41-0.321,0.425c-0.227,0.011-0.228-0.406-0.442-0.383c-0.213,0.026-0.202,0.359-0.13,0.598
			c0.072,0.237,0.382,0.404,0.167,0.44c-0.214,0.037-1.002,0.174-1.214,0.191c-0.597,0.047-1.333-0.19-1.312,0.226
			c0.011,0.25,0.608,0.393,0.989,0.417s1.812,0.049,2.432,0.155c0.538,0.094,1.418,0.499,1.955,0.668
			c0.462,0.144,1.113,0.229,1.727,0.448c0.633,0.86,0.879,1.588,1.019,1.762c0.316,0.397,0.529,0.359,0.566,0.757
			c0.188,1.992,1.534,2.916,1.176,3.231c-0.355,0.313-1.083,0.288-2.052,0.765c-1.197,0.586-7.952,4.795-8.085,6.77
			c-0.127,1.846,0.862,3.67,1.258,4.135c0.482,0.567,1.53,4.008,1.89,4.787c1.112,2.413,1.337,4.984,1.742,6.023
			c0.44,1.133,0.188,3.062,0.608,4.658c0.148,0.563,0.232,1.128,0.138,1.178c-0.294,0.143-0.768,0.103-0.706,0.546
			c0.068,0.463,0.421,0.479,0.947,0.479c0.524,0,2.558-0.146,3.862,0c1.341,0.152,2.45,0.828,3.21,0.374
			c0.913-0.549-0.056-1.951,0.083-4.151C81.376,112.994,82.481,109.51,82.467,107.977z M53.872,71.454v-3.467h4.001V63.27h4.733
			v-3.991h3.476C65.134,65.551,60.162,70.509,53.872,71.454z M53.872,42.75c6.29,0.944,11.262,5.903,12.209,12.175h-3.476v-3.992
			h-4.733v-4.716h-4.001V42.75z M49.502,42.75v3.467H45.5v4.716h-4.731v3.992h-3.476C38.239,48.653,43.211,43.694,49.502,42.75z
			 M49.502,71.454c-6.292-0.944-11.263-5.902-12.21-12.175h3.476v3.991H45.5v4.717h4.003V71.454z M46.592,66.897v-4.715H41.86V58.19
			h-4.733v-2.176h4.733v-3.992h4.732v-4.717h4.002v-4.716h2.183v4.716h4.005v4.717h4.729v3.992h4.732v2.176h-4.732v3.992h-4.729
			v4.715h-4.005v4.716h-2.183v-4.716H46.592z M78.837,113.672c-0.076,0.955-0.546,2.26-1.355,2.469
			c-0.721,0.188-2.431,0.959-2.608,1.017c0.18-0.417,0.423-1.503,0.403-2.683c-0.013-0.841,0.609-1.768,0.945-2.494
			c0.342-0.745,0.989-1.066,0.896-1.814c-0.104-0.832-1.477-0.989-1.815-1.788c-0.236-0.557-0.716-5.593-0.978-6.793
			c-0.261-1.197-0.729-2.243-0.935-2.672c-0.285-0.599-0.454-0.806,0-1.308c0.543-0.599,2.933-0.822,4.288-1.098
			c-0.098,0.172-1,3.194-1.029,4.108c-0.032,1.018,0.203,2.021,0.966,3.94C78.119,105.828,79.059,110.88,78.837,113.672z"/>
		<path fill="#FFFFFF" d="M99.033,113.205c-0.339-0.616-0.855-5.008-1.783-6.828c-0.509-0.997-1.86-2.808-1.955-3.377
			c-0.073-0.437,0.19-2.163,0.512-2.487c1.215-1.213,2.523-4.477,2.751-5.234c0.128-0.425,0.795-0.77,1.156-0.833
			c0.419-0.078,3.553,7.24,5.844,9.846c1.822,2.065,1.694,2.458,2.239,3.034c0.588,0.626,1.491,0.667,2.257,1.289
			c1.403,1.137,1.932,2.699,2.789,3.603c0.666,0.703,4.045,3.921,3.965,4.272c-0.08,0.346-0.144,0.525-0.437,0.606
			c-0.293,0.078-0.703,0.313-0.665,0.647c0.041,0.371,0.663,0.717,2.002,0.672c1.396-0.05,3.166,0.084,3.362-0.155
			c0.36-0.437,0.062-0.862-0.392-1.223c-0.454-0.359-0.719-0.592-0.866-0.885c-0.157-0.315-0.304-0.474-0.741-0.778
			c-0.644-0.448-2.844-5.654-3.933-7.044c-1.112-1.422-3.294-3.07-3.585-3.262c-0.394-0.263-0.904-1.132-1.44-1.671
			c-0.667-0.664-1.735-4.847-1.948-5.355c-0.294-0.694-1.961-5.04-2-6.255c-0.049-1.554-0.381-2.779-0.741-3.756
			c-0.475-1.289-0.309-2.25-0.146-3.324c0.241-1.608,0.64-3.998,0.545-5.743c-0.113-2.069-0.683-6.242-0.512-8.426
			c0.091-1.154,0.387-2.524,0.607-3.717c0.228-1.232,0.142-4.177,0.438-4.914c0.456-1.139,0.432-2.824,0.512-3.681
			c0.08-0.856,0.377-3.452,0.511-4.041c0.006-0.025,0.004-0.047,0.002-0.069c0.291-0.9,0.779-1.577,1.184-1.874
			c0.379-0.279,0.486-0.539,0.419-0.644c-0.096-0.149-0.588,0.354-0.847,0.472c-0.22,0.102-0.341,0.048-0.249-0.197
			c0.092-0.245,0.534-0.989,0.702-1.564c0.078-0.269-0.157-0.292-0.26-0.111c-0.117,0.213-0.161,0.354-0.349,0.581
			c-0.136,0.165-0.342,0.447-0.432,0.421c-0.118-0.033,0.08-0.573,0.109-0.764c0.085-0.576,0.05-0.852-0.055-0.89
			c-0.173-0.066-0.202,0.123-0.342,0.726c-0.043,0.179-0.167,0.574-0.261,0.76c-0.139,0.273-0.289,0.207-0.291,0.045
			c-0.003-0.466-0.155-1.113-0.192-1.345c-0.004-0.028-0.016-0.037-0.023-0.056c1.02-0.951,2.242-1.771,3.713-2.504l-1.672-31.377
			H91.872l-1.665,31.377c5.091,2.537,7.267,6.004,7.945,12.726c-0.081,0.546-0.094,1.125-0.136,1.337
			c-0.057,0.285-0.218,0.264-0.385,0.044c-0.195-0.259-0.392-1.016-0.587-0.928c-0.137,0.063-0.18,0.362,0.036,0.849
			c0.128,0.291,0.323,0.92,0.381,1.488c-0.653-0.371-1.507-0.636-2.285-0.543c-0.61,0.07-3.405,0.82-3.653,2.983
			c-0.156,1.357,0.974,2.378,0.898,2.852c-0.059,0.37-2.212,1.521-1.601,3.283c0.703,2.031,1.837,3.663,2.646,4.541
			c0.692,0.75,2.912,6.329,2.798,8.318c-0.028,0.495-0.946,1.315-1.347,2.334c-0.297,0.757-0.327,1.429-0.379,1.823
			c-0.048,0.354-1.614,1.593-2.979,7.456c-0.512,2.195-0.388,6.235-0.304,6.771c0.152,0.947,0.436,0.832,0.57,1.572
			c0.071,0.397,0.385,1.96,1.043,3.302c0.931,1.899,4.231,6.432,4.526,7.96c0.162,0.833-0.125,2.768-0.314,3.099
			c-0.418,0.742-0.722,0.659-0.722,1.142c0,0.48,1.49,0.276,2.158,0.171c0.668-0.108,1.269-0.62,1.296-1.101
			c0.024-0.479,0.03-1.549,0.207-1.918c0.248-0.511,0.861-0.811,0.835-1.291C100.796,114.4,99.355,113.795,99.033,113.205z
			 M98.792,60.791c-0.111-0.031-0.149-0.412-0.187-0.645c-0.002-0.011-0.002-0.019-0.004-0.03h0.514
			C99.029,60.37,98.913,60.819,98.792,60.791z M99.662,60.116h1.001c-0.243,0.245-0.669,0.664-0.92,1.032
			c-0.101,0.153-0.301,0.131-0.274-0.208C99.486,60.726,99.592,60.323,99.662,60.116z M97.885,44.833
			c0-1.282,1.041-2.323,2.323-2.323s2.323,1.041,2.323,2.323c0,1.284-1.041,2.325-2.323,2.325S97.885,46.117,97.885,44.833z
			 M104.747,58.855c-0.308,1.344-0.312,1.872-0.32,1.899c-0.268,0.722-1.325,3.409-1.471,5.025c-0.148,1.629-1.06,3.242-1.552,3.469
			c-0.258,0.119-1.343,0.416-1.557,0.416c-0.212,0-0.625-0.739-0.687-0.919c-0.119-0.336,0.035-1.747,0.293-2.136
			c0.513-0.772,0.227-1.502-0.419-2.369c0.394-0.263,0.373-0.308,0.782-0.438c0.277-0.09,0.47-0.317,0.812-0.34
			c0.669-0.044,0.587-0.161,1.007-0.258c0.233-0.055,0.138-0.349-0.071-0.393c-0.786-0.169-0.802,0.107-1.4-0.081
			c-0.153-0.047-0.077-0.601,0.009-0.83c0.085-0.227,0.341-0.739,0.455-0.91c0.114-0.17,0.421-0.592,0.507-0.878h1.102
			c0.342-3.537,1.095-6.188,2.446-8.281c0.1,0.207,0.153,0.401,0.328,0.669c0.153,0.234,0.286,0.366,0.438,0.549
			c0.214,0.262,0.18,0.682,0.236,1.227C105.628,55.948,104.862,58.358,104.747,58.855z M106.059,51.482
			c-0.047,0.212-0.249,0.675-0.379,0.649c-0.458-0.095-0.409-0.389-0.753-0.658c0.374-0.532,0.786-1.031,1.248-1.493
			c-0.018,0.229-0.011,0.481-0.01,0.603C106.164,50.764,106.104,51.27,106.059,51.482z M92.854,16.827h14.712l0.243,4.577
			c-2.303,1.108-4.878,1.734-7.6,1.734c-2.721,0-5.296-0.626-7.598-1.734L92.854,16.827z M92.55,22.53
			c2.338,1.059,4.929,1.656,7.658,1.656c2.73,0,5.321-0.597,7.66-1.656l0.127,2.376c-2.35,1.164-4.99,1.83-7.787,1.83
			c-2.795,0-5.435-0.666-7.785-1.83L92.55,22.53z M92.362,26.041c2.389,1.112,5.043,1.743,7.846,1.743
			c2.804,0,5.458-0.631,7.846-1.743l0.125,2.369c-2.395,1.223-5.103,1.923-7.972,1.923c-2.869,0-5.575-0.7-7.971-1.923
			L92.362,26.041z M92.176,29.547c2.435,1.17,5.156,1.834,8.032,1.834s5.599-0.664,8.032-1.834l0.125,2.365
			c-2.441,1.285-5.213,2.019-8.158,2.019c-2.944,0-5.715-0.734-8.158-2.019L92.176,29.547z M91.272,46.596l0.718-13.54
			c2.482,1.224,5.268,1.92,8.218,1.92c2.952,0,5.737-0.696,8.219-1.92l0.719,13.535c-4.838,2.594-7.034,6.098-7.804,12.487h-0.617
			V48.146c1.606-0.249,2.839-1.636,2.839-3.312c0-1.852-1.502-3.355-3.356-3.355c-1.852,0-3.355,1.503-3.355,3.355
			c0,1.677,1.232,3.063,2.839,3.312v10.932h-0.623C98.297,52.692,96.104,49.189,91.272,46.596z"/>
		<path fill="#FFFFFF" d="M256.902,94.465c0.365,0.066,1.028,0.411,1.156,0.836c0.229,0.759,1.537,4.02,2.753,5.234
			c0.32,0.324,0.583,2.048,0.512,2.487c-0.097,0.568-1.445,2.379-1.953,3.374c-0.934,1.82-1.444,6.215-1.789,6.83
			c-0.318,0.59-1.76,1.196-1.816,2.239c-0.023,0.48,0.587,0.777,0.833,1.292c0.18,0.365,0.183,1.434,0.209,1.915
			c0.026,0.48,0.628,0.991,1.296,1.103c0.666,0.104,2.157,0.305,2.157-0.173c0-0.482-0.303-0.399-0.718-1.14
			c-0.19-0.334-0.478-2.266-0.319-3.101c0.299-1.528,3.601-6.062,4.529-7.96c0.655-1.341,0.97-2.906,1.041-3.3
			c0.133-0.74,0.419-0.626,0.573-1.575c0.081-0.534,0.207-4.576-0.308-6.774c-1.367-5.859-2.929-7.097-2.977-7.453
			c-0.053-0.393-0.083-1.067-0.383-1.821c-0.399-1.02-1.315-1.84-1.342-2.333c-0.117-1.993,2.103-7.57,2.797-8.319
			c0.809-0.877,3.334-5.295,2.256-6.645c-1.057-1.322-1.012-1.058-1.068-1.427c-0.079-0.475,1.077-1.235,0.924-2.595
			c-0.248-2.161-3.216-2.921-3.826-2.994c-0.776-0.093-1.628,0.171-2.284,0.545c0.044-0.415,0.159-0.858,0.266-1.183l19.071-11.83
			l-45.764-11.24l16.566,16.27c0.151,0.86,0.385,2.776,0.455,3.52c0.079,0.855,0.057,2.543,0.511,3.68
			c0.296,0.737,0.212,3.68,0.44,4.914c0.22,1.192,0.516,2.563,0.604,3.718c0.174,2.183-0.398,6.357-0.511,8.427
			c-0.093,1.742,0.306,4.132,0.544,5.74c0.161,1.076,0.332,2.037-0.148,3.325c-0.354,0.977-0.686,2.201-0.738,3.755
			c-0.037,1.216-1.708,5.562-1.997,6.258c-0.216,0.505-1.284,4.688-1.949,5.354c-0.537,0.537-1.048,1.406-1.44,1.67
			c-0.289,0.191-2.474,1.841-3.585,3.263c-1.089,1.39-3.29,6.596-3.934,7.046c-0.437,0.303-0.583,0.461-0.738,0.776
			c-0.152,0.297-0.413,0.526-0.869,0.887c-0.454,0.36-0.75,0.785-0.39,1.223c0.195,0.236,1.966,0.103,3.358,0.151
			c1.342,0.047,1.962-0.299,2.003-0.671c0.036-0.333-0.369-0.566-0.664-0.646c-0.296-0.083-0.358-0.26-0.437-0.608
			c-0.08-0.35,3.301-3.566,3.965-4.269c0.856-0.906,1.384-2.466,2.789-3.605c0.765-0.62,1.669-0.661,2.259-1.286
			c0.543-0.581,0.417-0.971,2.237-3.038C253.349,101.708,256.485,94.388,256.902,94.465z M261.07,70.727
			c0.1-0.125,1.257-0.755,1.328-0.828c0,0,0.589,0.413,0.343,0.78c-0.245,0.368-0.608,0.953-1.025,0.977
			c-0.416,0.025-0.78-0.244-0.78-0.34C260.936,71.216,260.971,70.849,261.07,70.727z M276.045,50.088l-17.479,10.845
			c-0.032-0.419-0.07-1.076-0.212-1.557c-0.085-0.298-0.348-0.186-0.343,0.042c0.011,0.269,0.056,0.429,0,0.75
			c-0.036,0.233-0.074,0.614-0.186,0.642c-0.143,0.036-0.274-0.588-0.363-0.784c-0.273-0.594-0.483-0.834-0.619-0.812
			c-0.22,0.036-0.133,0.232,0.101,0.882c0.067,0.194,0.188,0.639,0.206,0.866c0.003,0.053-0.009,0.085-0.013,0.124l-6.169-6.059
			c-0.015-0.149-0.032-0.299-0.038-0.443c0.059-0.545,0.023-0.966,0.236-1.229c0.156-0.184,0.288-0.313,0.439-0.55
			c0.232-0.352,0.248-0.576,0.444-0.872c0.125-0.191-0.076-0.333-0.229-0.247c-0.497,0.289-0.373,0.64-0.883,0.748
			c-0.132,0.027-0.331-0.436-0.379-0.648c-0.046-0.213-0.105-0.72-0.108-0.899c0.003-0.183,0.023-0.645-0.055-0.901
			c-0.037-0.136-0.252-0.248-0.299,0.05c-0.039,0.233-0.191,0.879-0.194,1.344c-0.003,0.16-0.151,0.229-0.292-0.044
			c-0.092-0.186-0.215-0.581-0.26-0.759c-0.14-0.604-0.169-0.794-0.34-0.726c-0.104,0.039-0.141,0.314-0.056,0.889
			c0.029,0.192,0.227,0.732,0.112,0.765c-0.095,0.025-0.299-0.257-0.435-0.42c-0.186-0.226-0.231-0.369-0.349-0.581
			c-0.103-0.181-0.341-0.158-0.26,0.111c0.169,0.576,0.608,1.32,0.701,1.563c0.096,0.247-0.027,0.3-0.249,0.197
			c-0.184-0.083-0.493-0.368-0.685-0.465l-11.898-11.683L276.045,50.088z M255.214,69.27c-0.49-0.228-1.405-1.838-1.553-3.467
			c-0.145-1.616-1.201-4.305-1.469-5.026c-0.009-0.027-0.015-0.555-0.321-1.897c-0.07-0.302-0.376-1.202-0.623-2.233l5.06,4.968
			c0.054,0.12,0.106,0.233,0.135,0.312c0.087,0.227,0.164,0.782,0.011,0.83c-0.598,0.186-0.614-0.09-1.4,0.079
			c-0.207,0.046-0.305,0.339-0.072,0.393c0.42,0.097,0.341,0.215,1.009,0.26c0.339,0.022,0.535,0.248,0.81,0.338
			c0.409,0.131,0.39,0.175,0.782,0.436c-0.643,0.868-0.928,1.596-0.417,2.37c0.259,0.389,0.413,1.803,0.293,2.137
			c-0.062,0.18-0.476,0.919-0.688,0.919S255.471,69.389,255.214,69.27z"/>
		<path fill="#FFFFFF" d="M296.954,112.701c0.723,1.108,0.428,1.171,0.735,1.516c0.31,0.346,0.431,0.31,0.817,0.951
			c0.822,1.362,0.859,1.485,1.174,2.321c0.197,0.534,0.578,0.735,1.01,1.382c0.212,0.32,0.584,0.396,0.762,0.353
			c0.281-0.072,0.183-0.338,0.486-0.395c0.161-0.03,0.422-0.021,0.566-0.175c0.433-0.47,0.586-1.094,0.483-1.466
			c-0.121-0.443-0.308-0.923-0.614-1.346c-0.311-0.425-1.536-1.815-2.022-2.354c-0.347-0.393-0.482-0.894-0.614-0.982
			c-0.272-0.185-0.382-0.179-0.602-0.572c-1.094-2.006-1.806-4.9-3.716-7.273c-1.562-1.946-2.712-2.498-3.266-2.797
			c-0.671-0.365-2.842-5.361-4.213-8.647c-0.482-1.159-0.366-2.077-1.213-3.526c-1.524-2.608-2.735-2.557-4.305-3.457
			c-0.821-0.468-1.521-1.945-3.222-4.988c0.789,0.052,3.015-0.217,3.589,0.052c1.65,1.82,3.618,3.16,5.64,4.091
			c0.331,0.351,0.657,0.714,0.955,1.066c0.313,0.367,0.942,0.95,1.23,1.406c0.393,0.629,1.06,1.422,1.214,1.74
			c0.336,0.69,0.592,0.083,0.438-0.263c-0.152-0.347-0.451-0.84-0.218-0.878c0.229-0.038,1.228-0.074,1.466-0.03
			c0.384,0.071,0.906,0.133,1.226,0.222c0.333,0.094,0.692,0.047,0.613-0.188c-0.079-0.244,0.095-0.166,0.33-0.142
			c0.145,0.015,0.579-0.213,0.228-0.534c0.26-0.204-0.059-0.464-0.15-0.552c-0.109-0.11-0.181-0.16-0.216-0.191
			c0.039,0.003,0.076,0.003,0.113,0.003c10.297,0,25.537-8.127,25.537-25.571c0-12.972-10.479-17.208-14.09-17.208
			c-5.201,0-7.273,4.394-8.942,7.923c-1.081,2.291-2.015,4.27-3.438,4.27c-1.704,0-2.117-1.566-2.55-3.955
			c-0.328-1.807-0.67-3.675-2.39-3.716c-3.185,0-11.371,9.624-11.371,20.243c0,0.136,0.007,0.266,0.009,0.401
			c-0.49,0.102-0.966,0.451-1.927,0.733c0.011-0.042,0.022-0.083,0.024-0.116c0.073-1.024-0.148-2.539-1.05-3.458
			c-0.858-0.868-2.521-1.214-3.118-1.194c-2.305,0.071-3.498,2.36-3.558,2.845c-0.112,0.962-0.511,1.01-0.412,1.85
			c0.091,0.765-0.231,1.651-0.157,2.19c0.077,0.539,0.098,1.134,0.54,1.3c0.425,0.162,0.466-0.046,0.431,0.63
			c-0.026,0.531,0.318,0.877,0.215,1.357c-0.433,1.935-0.261,2.163,0.151,4.694c0.377,2.295,2.499,4.798,4.075,6.307
			c0.701,0.67,2.185,2.806,2.873,3.435c0.162,0.151,0.174,1.137,0.1,1.288c-0.702,1.421-2.4,3.819-3.162,5.194
			c-1.082,1.963-1.549,3.849-1.771,4.347c-0.218,0.487-0.546,0.917-0.54,1.771c0.013,1.335,1.059,1.897,1.623,2.709
			c1.01,1.45,1.109,1.958,2.047,3.017c2.417,2.722,2.259,2.397,3.81,4.991c0.158,0.266,0.27,1.361,0.178,1.459
			c-0.491,0.537-1.525,2.571-2.185,2.771c-0.297,0.091-1.464,0.321-1.359,0.614c0.1,0.291,0.223,0.288,0.424,0.263
			c0.363-0.043,1.666-0.02,2.093-0.012c0.965,0.012,0.759-0.557,1.49-0.983c0.406-0.233,1.274-0.937,2.813-1.26
			c0.643-0.133,1.124-0.714,1.03-1.497c-0.063-0.497-1.073-1.589-1.632-2.248c-1.245-1.463-1.707-4.417-2.561-5.826
			c-0.882-1.449-3.473-3.532-3.311-3.817c1.522-2.666,3.16-3.22,4.229-4.507c0.747-0.899,1.217-2.345,2.194-3.097
			c2.577,2.742,3.08,4.964,5.083,7.03c0.439,0.456,0.667,1.027,1.521,1.553c0.951,0.585,2.342,1.973,4.375,3.819
			c0.646,0.585,1.079,1.89,2.449,3.262C296.395,111.789,296.527,112.055,296.954,112.701z M289.805,49.811
			c0.776,0.02,1.031,1.099,1.354,2.875c0.388,2.138,0.869,4.795,3.568,4.795c2.08,0,3.145-2.252,4.373-4.859
			c1.624-3.436,3.464-7.333,8.007-7.333c2.877,0,13.057,3.876,13.057,16.187c0,16.747-14.621,24.55-24.504,24.55
			c-1.226,0-2.592-0.178-3.997-0.556c-0.321-0.153-0.592-0.294-0.715-0.421c-0.948-0.996-2.146-2.736-4.358-4.845
			c-0.666-0.637-0.654-0.96-1.037-1.229c-0.388-0.271-0.866-0.158-1.837-0.503c-0.782-0.277-1.49-0.43-2.08-0.545
			c-0.954-1.68-1.65-3.65-1.978-5.938c0.621,0.107,1.142,0.381,1.142,0.148c0-0.249-0.31-0.3-0.08-0.334
			c0.313-0.047,0.446-0.163,1.497-0.106c0.31,0.018,0.707-0.136,0.57-0.32c-0.159-0.221-0.709-0.359-1.199-0.426
			c-0.641-0.088-0.603-0.461-1.023-0.718c-0.271-0.166-0.689-0.422-1.1-0.608c-0.006-0.197-0.014-0.391-0.014-0.593
			C279.451,58.68,287.33,49.811,289.805,49.811z M276.469,75.826c-0.471-0.484-0.822-0.676-2.183-2.152
			c-0.021-0.021-0.003-0.083,0.044-0.175c0.542-0.375,1.056-0.667,1.829-0.864c0.685-0.176,1.171-1.401,1.45-1.448
			c0.349-0.06,0.495,0.077,0.849,0.483c0.037,0.043,0.085,0.057,0.127,0.09c0.273,2.256,0.889,4.228,1.747,5.937
			c-1.181-0.174-2.335-0.263-2.579-0.336C277.11,77.173,277.152,76.536,276.469,75.826z"/>
		<path fill="#FFFFFF" d="M215.695,114.426c-0.087-0.56-0.626-1.177-0.979-1.357c-0.243-0.126-0.64-0.551-0.794-0.863
			c-0.21-0.416-1.024-2.788-1.363-3.757c0.501,0.912,2.178,2.953,2.622,3.995c0.505,1.171,1.081,1.699,1.17,1.907
			c0.085,0.206,0.931,2.366,0.922,2.608c-0.011,0.256,0.014,1.238,0.014,1.238s-1.151,0.386-1.002,0.644
			c0.151,0.261,0.23,0.301,0.73,0.316c0.561,0.021,1.628-0.065,1.888-0.274c0.257-0.205,0.637-0.54,0.368-1.46
			c-0.108-0.377-0.346-1.529-0.333-1.822c0.051-1.061,0.655-2.066,0.817-2.712c0.13-0.519,0.163-1.23-0.216-1.479
			c-0.418-0.277-0.884-0.496-1.291-0.59c-0.303-0.069-0.513-0.188-0.776-0.577c-0.032-0.05-0.077-0.147-0.13-0.289l29.836-20.214
			l-0.471-0.431c-0.356-0.321-0.362-1.122-0.371-1.974c-0.01-1.395-0.026-3.253-1.726-4.261c0.427-0.466,1.153-1.188,1.82-1.814
			l0.517-0.487l-0.629-0.325c-0.484-0.248-1.473-0.947-1.455-1.529c0-0.064,0.009-0.147,0.021-0.25
			c0.053-0.533,0.152-1.52-0.283-2.234c0.076-0.049,0.161-0.103,0.247-0.155c1.277-0.809,3.423-2.158,3.144-4.496l-0.072-0.626
			l-0.593,0.213c-1.221,0.443-5.157,1.091-6.751,1.256c0.067-0.475,0.308-1.03,0.558-1.612c0.522-1.208,1.112-2.58,0.296-3.787
			l-0.162-0.238l-0.29,0.022c-0.74,0.056-2.081-0.321-2.826-0.565l-0.054-12.596l-29.286,20.011
			c-0.694-0.632-1.433-1.269-1.691-1.463c-0.314-0.237-0.431-0.172-0.327-0.363c0.102-0.191,0.348-0.47,0.625-0.521
			c0.369-0.071,1.039-0.395,1.44-1.134c0.406-0.747,0.712-2.411,0.563-3.213c-0.218-1.16-1.455-2.929-3.873-3.075
			c-0.396-0.025-1.405,0.217-1.923,0.664c-0.637,0.551-0.698,1.285-0.904,1.456c-0.209,0.173-0.622,0.303-1.225,0.327
			c-0.143,0.005-0.275,0.105-0.328,0.191c-0.105,0.179,0.286,0.562,0.243,0.689c-0.029,0.083-0.406,0.16-0.337,0.293
			c0.061,0.116,0.156,0.432,0.036,0.448c-0.056,0.009-0.425-0.094-0.457-0.008c-0.052,0.13,0.082,0.282-0.045,0.371
			c-0.146,0.103-0.426,0.345-0.422,0.646c0.009,0.448,0.868,0.788,1.017,0.937c0.217,0.219,0.532,0.924,0.605,1.234
			c0.065,0.31,0.109,1.034,0.307,1.44c0.098,0.193,0.768,0.857,1.057,1.446c-0.68,0.749-1.298,0.729-2.679,1.912
			c-0.396,0.342-0.584,1.222-1.48,1.791c-0.396,0.254-0.822,0.57-1.229,0.886c-0.229-0.624-0.472-1.231-0.723-1.818
			c0.154-0.192,0.339-0.387,0.416-0.445c0.14-0.101,0.414-0.827,0.414-1.05c0-0.225,0-0.88,0.036-0.983
			c0.034-0.103-0.088-0.257-0.347-0.017c-0.236,0.221-0.222,0.741-0.275,0.811c-0.053,0.067-0.276,0.36-0.361,0.24
			c-0.089-0.119-0.379-0.723-0.343-0.948c0.032-0.223-0.226-1.689-0.26-1.843c-0.036-0.154-0.295-0.24-0.328-0.053
			c-0.014,0.085-0.086-0.379-0.239-0.379c-0.19,0-0.226,0.449-0.226,0.449s-0.086-0.241-0.259-0.226
			c-0.154,0.017-0.143,0.229-0.179,0.408c-0.187-0.354-0.371-0.703-0.552-1.044c-0.608-1.148-1.181-2.236-1.661-3.285
			c0.47,0.186,0.999,0.226,1.573,0.115c1.53-0.294,2.492-1.864,2.445-4c-0.059-2.72-1.787-5.714-4.975-6.177
			c-1.077-0.157-2.694,0.085-3.997,1.235c-0.788,0.697-1.712,1.987-1.843,4.175h-0.8v-5.396h-1.031v5.396h-2.226v-5.396h-1.033
			v5.396h-2.228v-5.396h-1.035v5.396h-2.227v-5.396h-1.033v5.396h-0.797c-0.133-2.188-1.054-3.478-1.843-4.175
			c-1.305-1.15-2.922-1.392-4-1.235c-3.184,0.463-4.913,3.457-4.972,6.177c-0.046,2.136,0.915,3.705,2.443,4
			c0.579,0.111,1.104,0.071,1.574-0.115c-0.477,1.049-1.054,2.137-1.663,3.285c-2.245,4.233-5.04,9.502-5.04,17.025
			c0,11.701,6.052,17.3,9.757,19.629c0.631,0.425,1.469,0.796,2.5,1.098v4.071h-5.502v4.679h25.9v-4.679h-5.504v-4.071
			c0.953-0.284,1.747-0.626,2.365-1.02l0.002,0.005c3.694-2.279,9.89-7.874,9.89-19.712c0-1.389-0.097-2.7-0.269-3.943
			c0.489-0.002,0.629-0.222,1.299-0.502c1.241-0.515,2.104-2.206,2.55-2.723c0.279-0.32,0.762-0.906,1.142-1.404
			c0.468,0.65,1.219,1.55,1.858,1.99c0.909,0.625,4.57,2.602,5.379,2.787c0.11,0.027-0.01,0.473,0.018,0.768
			c0.013,0.156-0.366,0.694-0.48,1.386c-0.115,0.671-0.115,2.603-0.115,2.757c0,0.156-2.32,2.853-3.989,6.004
			c-1.106,2.1-1.715,4.792-1.735,5.591c-0.021,0.758,0.636,1.9,0.941,2.181c0.395,0.36,0.971,1.173,1.127,1.441
			c0.268,0.456,3.225,6.042,3.872,7.133c0.188,0.319,0.168,1.384,0.13,1.877c-0.021,0.301-0.521,0.921-0.688,1.378
			c-0.15,0.397-0.447,1.068-0.865,1.613c-0.256,0.337-1.159,0.358-1.593,0.393c-0.359,0.028-0.301,0.564-0.021,0.688
			c0.289,0.128,2.019,0.066,2.6,0.029c0.59-0.04,1.539-0.883,1.918-1.334c0.342-0.401,1.054-0.966,1.52-1.158
			C214.963,115.583,215.779,114.984,215.695,114.426z M188.601,60.577c1.052-0.926,2.342-1.122,3.204-0.998
			c2.634,0.385,4.061,2.902,4.109,5.189c0.031,1.225-0.381,2.738-1.626,2.978c-0.587,0.112-1.062,0.009-1.453-0.316
			c-0.969-0.799-1.216-2.803-1.23-3.509l-1.002,0.019c0,0.011,0.002,0.054,0.005,0.108h-0.005c0.103,2.745,1.482,5.343,3.081,8.352
			c0.206,0.389,0.414,0.784,0.623,1.186c-0.029,0.357-0.053,0.811-0.053,1.001c0,0.259-0.118,0.708-0.065,1.104
			c0.029,0.227,0.032,1.153,0.292,1.551c0.213,0.325,0.439,0.641,0.567,0.895c0.339,0.654,0.589,1.385,0.847,2.114
			c-0.305,0.131-0.826,0.36-1.278,0.266c-0.949-0.203-2.327-0.619-3.653-1.132c-0.394-1.225-0.822-2.431-1.255-3.618
			c-1.355-3.736-2.633-7.264-2.633-11.248C187.075,62.822,187.604,61.459,188.601,60.577z M186.086,65.033
			c0.106,3.962,1.411,7.581,2.683,11.084c0.328,0.91,0.661,1.83,0.976,2.759c-0.926-0.417-1.749-0.869-2.269-1.316
			c-0.194-0.165-0.354-0.863-0.385-1.096c-0.042-0.329-0.544-0.872-0.698-1.208c-0.083-0.179-0.209-0.185-0.304,0
			c-0.108,0.22,0.074,0.543,0.165,0.768c0.084,0.209,0.069,0.506-0.165,0.631c-0.167,0.089-0.165,0.015-0.479-0.014
			c-0.099-0.008-0.203-0.06-0.306-0.117V65.033H186.086z M191.485,87.863c0,6.567-3.896,10.658-6.182,12.493V79.062
			c0.188,0.03,0.417,0.088,0.691,0.157c0.586,0.151,0.794-0.026,1.505,0.496c0.332,0.242,1.56,1.045,3.053,1.805
			C191.103,83.544,191.485,85.645,191.485,87.863z M182.047,65.033h2.226v10.648c-0.089-0.103-0.175-0.203-0.239-0.289
			c-0.201-0.257-0.413-0.083-0.383,0c0.027,0.085,0.453,0.755,0.453,0.755s0.068,0.112,0.169,0.241v0.516
			c-0.177-0.067-0.36-0.141-0.489-0.18c-0.269-0.088-0.623-0.369-0.819-0.454c-0.2-0.084-0.32,0.161-0.206,0.276
			c0.113,0.113,0.794,0.56,0.794,0.56s0.405,0.203,0.721,0.366v0.463c-0.342-0.02-0.941-0.088-1.338-0.197
			c-0.273-0.074-0.26,0.183-0.094,0.26c0.31,0.15,0.883,0.315,1.432,0.403v0.449c-0.335,0.156-0.746,0.269-0.91,0.315
			c-0.202,0.057-0.047,0.192,0.122,0.192c0.105,0,0.451-0.053,0.788-0.127v21.89c-0.189,0.127-0.335,0.218-0.435,0.279
			c-0.58-0.104-1.177-0.188-1.791-0.247V65.033z M178.786,65.033h2.228v36.045c-0.367-0.02-0.742-0.027-1.115-0.027
			c-0.375,0-0.746,0.008-1.112,0.027V65.033z M175.524,65.033h2.227v36.12c-0.614,0.059-1.214,0.143-1.794,0.247
			c-0.1-0.062-0.249-0.152-0.433-0.28V65.033z M173.712,65.033h0.779v35.324c-2.284-1.835-6.18-5.926-6.18-12.493
			c0-4.246,1.381-8.058,2.716-11.747C172.299,72.614,173.606,68.995,173.712,65.033z M168.507,106.274
			c-3.36-2.792-7.312-8.047-7.312-17.333c0-7.266,2.613-12.193,4.922-16.542c1.594-3.009,2.972-5.607,3.074-8.352h-0.002
			c0.002-0.054,0.002-0.097,0.002-0.108l-1-0.019c-0.015,0.706-0.26,2.71-1.229,3.509c-0.392,0.325-0.868,0.428-1.455,0.316
			c-1.244-0.239-1.654-1.753-1.629-2.978c0.052-2.288,1.48-4.804,4.115-5.189c0.857-0.123,2.151,0.072,3.2,0.998
			c1,0.882,1.526,2.245,1.526,3.941c0,3.984-1.277,7.512-2.632,11.248c-1.365,3.77-2.777,7.669-2.777,12.098
			c0,7.596,4.9,12.085,7.18,13.762v0.086h0.043C171.016,102.622,168.519,104.368,168.507,106.274z M191.844,114.76v2.641h-23.893
			v-2.641H191.844z M173.456,113.739v-3.875h12.887v3.875H173.456z M186.506,108.845h-13.215c-2.374-0.606-3.783-1.552-3.783-2.557
			c0-1.951,4.541-4.218,10.39-4.218c5.852,0,10.39,2.267,10.39,4.218C190.288,107.293,188.881,108.238,186.506,108.845z
			 M191.288,106.274c-0.01-1.906-2.508-3.649-6.024-4.563h0.04v-0.086c2.282-1.677,7.182-6.166,7.182-13.762
			c0-2.03-0.304-3.944-0.758-5.791c0.768,0.335,1.558,0.625,2.304,0.796c0.662,0.153,1.117,0.257,1.424,0.219
			c0.363-0.044,0.78-0.325,1.41-0.603c0.17,0.28,0.348,0.549,0.565,0.788c0.284,0.32,0.54,0.64,0.772,0.916
			c0.251,1.472,0.399,3.046,0.399,4.753C198.603,98.228,194.649,103.482,191.288,106.274z M200.322,80.98
			c-0.188,0.552-0.791,1.224-0.791,1.224c-0.032-0.18-0.171-0.463-0.354-0.79c0.484-0.281,0.946-0.576,1.343-0.841
			C200.424,80.747,200.355,80.887,200.322,80.98z M210.934,99.838c-0.095-0.03,1.976-2.636,3.403-4.253
			c1.041-1.181,1.884-2.889,2.008-2.95c0.269-0.136,2.648-1.425,2.829-3.245c0.18-1.786-0.809-4.482-1.645-5.393
			c-1.062-1.147-1.62-1.609-2.034-1.893c-2.395-1.661-4.616-6.105-5.348-6.951c-0.115-0.136-0.327-0.348-0.581-0.592l27.538-18.817
			l0.05,11.417l0.329,0.119c0.089,0.031,1.96,0.701,3.24,0.739c0.301,0.722-0.095,1.638-0.508,2.601
			c-0.381,0.877-0.772,1.786-0.625,2.63l0.07,0.424l0.428-0.009c0.93-0.016,4.937-0.633,6.898-1.147
			c-0.215,1.363-1.669,2.28-2.674,2.915c-0.317,0.2-0.596,0.375-0.786,0.537l-0.499,0.424l0.541,0.37
			c0.468,0.325,0.37,1.287,0.317,1.806c-0.014,0.13-0.023,0.24-0.027,0.321c-0.027,0.928,0.804,1.674,1.407,2.094
			c-0.636,0.615-1.643,1.616-1.87,2.029l-0.276,0.5l0.531,0.208c1.661,0.649,1.672,2.095,1.684,3.621
			c0.009,0.826,0.018,1.617,0.324,2.221l-28.683,19.427c-0.556-1.481-1.589-4.055-3.364-6.707
			C213.077,101.482,211.833,100.107,210.934,99.838z"/>
		<path fill="#FFFFFF" d="M54.233,59.641h4.004v-5.08h-4.004v-3.991H49.14v3.991h-4.003v5.08h4.003v3.995h5.094V59.641z
			 M54.233,55.65h2.912v2.902h-2.912V55.65z M49.14,58.552h-2.913V55.65h2.913V58.552z M53.143,62.545h-2.913v-2.905h2.913V62.545z
			 M53.143,58.552h-2.913V55.65h2.913V58.552z M53.143,54.561h-2.913V51.66h2.913V54.561z"/>
		<path fill="#FFFFFF" d="M130.081,87.047L130.081,87.047c0.013,0,0.022,0,0.034,0c0.012,0,0.023,0,0.035,0l0,0
			c2.995-0.009,5.513-0.435,7.63-1.127c-0.335,0.232-1.028,0.504-1.614,0.849c-0.504,0.298-1.413,0.172-2.257,0.442
			c-0.731,0.233-0.706,0.437-0.6,0.525c0.088,0.074-0.19,0.205-0.424,0.439c-0.088,0.089-0.191,0.395,0.074,0.381
			c-0.352,0.322,0,0.513,0.146,0.496c0.234-0.023,0.313,0.038,0.439,0.263c0.073,0.132,0.253,0.199,0.583,0.105
			c0.324-0.089,0.847-0.15,1.231-0.221c0.235-0.044,1.234-0.01,1.463,0.029c0.231,0.038-0.065,0.532-0.218,0.878
			c-0.155,0.346,0.104,0.951,0.438,0.263c0.157-0.318,0.82-1.113,1.215-1.74c0.288-0.457,0.917-1.038,1.23-1.406
			c0.57-0.673,1.244-1.391,1.843-1.989c0.502-0.502,1.888-1.174,2.488-1.537c0.801-0.487,1.545-1.265,2.18-1.83
			c0.396-0.351,2.884-0.601,3.718-0.656c-1.696,3.044-2.398,4.522-3.22,4.989c-1.571,0.898-2.78,0.85-4.302,3.456
			c-0.848,1.449-0.732,2.371-1.215,3.526c-1.373,3.285-3.541,8.282-4.215,8.648c-0.55,0.298-1.697,0.851-3.265,2.797
			c-1.91,2.372-2.619,5.27-3.718,7.272c-0.215,0.394-0.323,0.385-0.6,0.57c-0.131,0.089-0.266,0.593-0.614,0.982
			c-0.483,0.541-1.712,1.933-2.02,2.355c-0.308,0.423-0.495,0.902-0.615,1.349c-0.102,0.371,0.051,0.993,0.483,1.462
			c0.141,0.156,0.406,0.147,0.566,0.175c0.305,0.058,0.205,0.323,0.489,0.396c0.175,0.044,0.547-0.032,0.76-0.351
			c0.428-0.647,0.809-0.848,1.01-1.385c0.313-0.834,0.351-0.957,1.17-2.316c0.387-0.646,0.513-0.606,0.821-0.952
			c0.307-0.346,0.012-0.411,0.737-1.518c0.424-0.646,0.559-0.915,1.497-1.854c1.371-1.369,1.806-2.675,2.448-3.259
			c2.037-1.852,3.425-3.236,4.378-3.822c0.854-0.525,1.082-1.097,1.521-1.548c2.001-2.071,2.503-4.293,5.082-7.035
			c0.977,0.753,1.445,2.195,2.193,3.098c1.068,1.285,2.707,1.843,4.229,4.506c0.165,0.289-2.43,2.371-3.308,3.819
			c-0.854,1.41-1.317,4.36-2.559,5.823c-0.562,0.661-1.57,1.753-1.632,2.251c-0.098,0.779,0.387,1.364,1.03,1.496
			c1.537,0.324,2.405,1.026,2.81,1.261c0.731,0.425,0.526,0.994,1.492,0.981c0.425-0.009,1.729-0.028,2.092,0.013
			c0.201,0.024,0.323,0.03,0.425-0.263c0.103-0.293-1.063-0.522-1.362-0.614c-0.657-0.201-1.695-2.236-2.185-2.773
			c-0.09-0.097,0.02-1.191,0.178-1.457c1.552-2.593,1.393-2.269,3.807-4.99c0.94-1.062,1.04-1.566,2.048-3.016
			c0.566-0.812,1.61-1.377,1.623-2.711c0.007-0.854-0.323-1.282-0.538-1.771c-0.221-0.495-0.689-2.384-1.772-4.345
			c-0.76-1.377-2.458-3.777-3.162-5.196c-0.074-0.15-0.062-1.137,0.103-1.287c0.688-0.631,2.166-2.765,2.871-3.437
			c1.577-1.506,3.7-4.013,4.075-6.303c0.414-2.534,0.584-2.764,0.154-4.697c-0.106-0.478,0.239-0.823,0.212-1.355
			c-0.033-0.676,0.008-0.47,0.432-0.63c0.441-0.167,0.462-0.763,0.54-1.301c0.077-0.537-0.249-1.426-0.158-2.189
			c0.1-0.84-0.299-0.888-0.412-1.851c-0.057-0.484-1.252-2.775-3.558-2.844c-0.598-0.02-2.262,0.326-3.115,1.193
			c-0.904,0.917-1.125,2.434-1.053,3.458c0.002,0.034,0.013,0.075,0.024,0.117c-1.14-0.335-1.596-0.767-2.207-0.767
			c-0.262,0-0.601,0.133-0.932,0.299c-0.029-2.458-0.552-4.909-1.596-7.128c-1.067-2.268-1.173-4.798-1.319-8.301l-0.014-0.312
			c-0.148-3.521-0.475-5.216-2.958-6.69c-3.36-1.994-7.7-2.964-13.265-2.969l0,0c-0.006,0-0.009,0-0.016,0c-0.006,0-0.011,0-0.015,0
			l0,0c-5.563,0.004-9.905,0.975-13.266,2.969c-2.483,1.474-2.808,3.169-2.958,6.69l-0.013,0.312
			c-0.146,3.503-0.252,6.033-1.319,8.301c-2.465,5.242-2.061,11.77,1.028,16.638C115.845,82.759,120.557,87.024,130.081,87.047z
			 M150.462,71.638c0.352-0.407,0.498-0.543,0.849-0.485c0.278,0.047,0.762,1.273,1.45,1.448c0.771,0.199,1.288,0.492,1.828,0.866
			c0.047,0.092,0.066,0.152,0.044,0.174c-1.36,1.477-1.711,1.669-2.181,2.152c-0.686,0.708-0.644,1.347-1.287,1.537
			c-0.301,0.089-2.049,0.206-3.425,0.614c-0.145,0.043-0.305,0.106-0.471,0.174c1.011-1.898,1.645-3.997,1.895-6.147
			c0.188-0.037,0.385-0.064,0.583-0.057C150.039,71.925,150.272,71.855,150.462,71.638z M114.861,54.28l0.014-0.31
			c0.14-3.281,0.386-4.64,2.468-5.874c3.208-1.902,7.385-2.828,12.771-2.828c5.388,0,9.566,0.926,12.771,2.828
			c2.082,1.233,2.331,2.592,2.469,5.874l0.013,0.31c0.016,0.366,0.03,0.715,0.047,1.057c-3.202-0.398-4.997-1.533-6.736-2.634
			c-2.072-1.31-4.215-2.667-8.532-2.679v-0.001c-0.012,0-0.021,0-0.032,0c-0.011,0-0.021,0-0.031,0v0.001
			c-4.315,0.012-6.461,1.369-8.532,2.679c-1.738,1.102-3.535,2.236-6.735,2.634C114.831,54.995,114.847,54.646,114.861,54.28z
			 M113.447,62.965c0.401-0.855,0.672-1.732,0.866-2.66c0.935,0.137,1.326,0.461,1.699,0.775l0.363,0.299l0.248-0.066
			c0.612-0.166,1.192-0.3,1.744-0.407c0.042,0.01,0.083,0.018,0.124,0.024l0.009-0.048c5.792-1.085,8.399,0.888,9.312,1.579
			l1.524,1.113l-0.595-1.569c-1.428-3.757-4.663-6.094-8.448-6.094c-2.936,0-3.978,1.493-3.978,2.771c0,0.5,0.234,1.06,0.685,1.502
			c-0.128,0.031-0.255,0.064-0.386,0.097c-0.409-0.346-0.97-0.783-2.126-0.96c0.136-0.919,0.217-1.904,0.276-2.972
			c3.527-0.406,5.458-1.622,7.321-2.803c2.047-1.295,3.982-2.518,8.03-2.525c4.049,0.007,5.983,1.23,8.029,2.525
			c1.865,1.181,3.795,2.397,7.322,2.803c0.06,1.068,0.141,2.053,0.277,2.972c-1.157,0.177-1.718,0.614-2.127,0.96
			c-0.13-0.033-0.258-0.066-0.386-0.097c0.45-0.442,0.686-1.001,0.686-1.502c0-1.278-1.042-2.771-3.978-2.771
			c-3.784,0-7.021,2.337-8.449,6.094l-0.595,1.569l1.523-1.113c0.914-0.691,3.521-2.665,9.313-1.579l0.009,0.048
			c0.042-0.006,0.083-0.014,0.122-0.024c0.554,0.107,1.133,0.241,1.745,0.407l0.247,0.066l0.362-0.299
			c0.375-0.314,0.765-0.638,1.701-0.775c0.194,0.928,0.464,1.805,0.865,2.66c1.052,2.238,1.53,4.78,1.469,7.313
			c-0.311,0.25-0.336,0.562-0.92,0.641c-0.26,0.035-0.534,0.093-0.763,0.173c0.027-0.269,0.062-0.535,0.062-0.815
			c0-3.065-1.844-5.9-4.586-7.054c-2.378-1.001-4.896-0.523-6.733,1.276l-0.634,0.62l0.859,0.221
			c0.896,0.231,1.966,0.757,1.966,1.956c0,0.552-0.205,0.984-0.609,1.286c-0.496,0.366-1.233,0.477-1.883,0.279
			c-1.611-0.49-2.319,0.14-2.943,0.694c-0.485,0.429-0.945,0.835-1.952,0.844c-1.007-0.009-1.465-0.415-1.95-0.844
			c-0.625-0.554-1.332-1.185-2.943-0.694c-0.649,0.198-1.387,0.087-1.883-0.279c-0.404-0.302-0.609-0.734-0.609-1.286
			c0-1.199,1.068-1.725,1.966-1.956l0.858-0.221l-0.632-0.62c-1.841-1.799-4.356-2.277-6.735-1.276
			c-2.743,1.154-4.587,3.988-4.587,7.054c0,6.977,8.568,9.907,11.382,10.874c0.16,0.053,0.29,0.097,0.402,0.138
			c0.085,0.136,0.177,0.269,0.28,0.399c0.931,1.148,2.428,1.731,4.446,1.733l0,0c0,0,0.003,0,0.004,0s0.003,0,0.004,0l0,0
			c2.019-0.002,3.515-0.585,4.446-1.733c0.104-0.13,0.197-0.263,0.282-0.399c0.112-0.041,0.242-0.085,0.401-0.138
			c2.622-0.9,10.228-3.51,11.259-9.5c0.065,0.01,0.131,0.018,0.194,0.015c0.998-0.056,1.171,0.047,1.453,0.096
			c-0.269,2.46-1.052,4.852-2.34,6.88c-0.029,0.046-0.064,0.095-0.093,0.141c-0.159,0.064-0.315,0.128-0.481,0.188
			c-0.972,0.343-1.534,0.505-1.917,0.774c-0.385,0.271-0.373,0.595-1.04,1.229c-1.318,1.26-2.272,2.379-3.033,3.295
			c-2.352,1.063-5.333,1.775-9.135,1.778c-9.095-0.008-13.557-4.031-15.699-7.406C111.55,74.126,111.16,67.828,113.447,62.965z
			 M117.312,58.683c0-1.077,1.168-1.771,2.98-1.771c2.785,0,5.242,1.438,6.726,3.843c-1.118-0.592-2.82-1.192-5.295-1.192
			c-0.98,0-2.083,0.094-3.32,0.321C117.653,59.648,117.312,59.063,117.312,58.683z M142.917,58.683c0,0.38-0.342,0.965-1.09,1.201
			c-1.237-0.227-2.34-0.321-3.321-0.321c-2.475,0-4.178,0.6-5.296,1.192c1.486-2.406,3.94-3.843,6.728-3.843
			C141.747,56.911,142.917,57.606,142.917,58.683z M135.391,76.101c-0.108-0.505,0.043-0.676,0.094-0.73
			c0.467-0.53,2.152-0.379,3.27-0.28c0.249,0.022,0.486,0.042,0.707,0.06c0.779,0.048,1.413-0.217,1.747-0.739
			c0.277-0.433,0.292-0.965,0.041-1.424c-0.325-0.598-1.016-0.939-1.898-0.939c-4.539,0-7.715,2.455-9.236,3.958
			c-1.521-1.504-4.698-3.958-9.236-3.958c-0.88,0-1.572,0.341-1.899,0.939c-0.25,0.458-0.235,0.991,0.043,1.424
			c0.331,0.521,0.967,0.787,1.746,0.739c0.219-0.017,0.459-0.038,0.707-0.06c1.116-0.099,2.804-0.25,3.27,0.28
			c0.049,0.055,0.203,0.225,0.095,0.73c-0.206,0.96-0.399,2.51,0.001,3.943c-3.014-1.046-10.243-3.833-10.243-9.767
			c0-2.668,1.596-5.134,3.975-6.134c1.761-0.741,3.546-0.543,5.01,0.529c-1.189,0.54-1.854,1.467-1.854,2.625
			c0,0.862,0.359,1.604,1.013,2.086c0.751,0.56,1.813,0.725,2.767,0.436c1.078-0.327,1.421-0.022,1.992,0.484
			c0.542,0.481,1.217,1.074,2.582,1.094v0.004c0.012,0,0.021-0.003,0.031-0.003c0.012,0,0.021,0.003,0.032,0.003v-0.004
			c1.364-0.02,2.041-0.613,2.581-1.094c0.571-0.506,0.916-0.811,1.992-0.484c0.956,0.289,2.015,0.124,2.767-0.436
			c0.655-0.483,1.015-1.225,1.015-2.086c0-1.158-0.667-2.084-1.857-2.625c1.466-1.072,3.252-1.27,5.011-0.529
			c2.379,1,3.979,3.465,3.979,6.134c0,5.935-7.231,8.721-10.244,9.767C135.79,78.611,135.593,77.061,135.391,76.101z
			 M134.413,76.309c0.249,1.175,0.503,3.358-0.624,4.75c-0.733,0.903-1.969,1.363-3.675,1.363c-1.705,0-2.941-0.46-3.674-1.363
			c-1.125-1.392-0.874-3.575-0.624-4.75c0.143-0.663,0.033-1.202-0.323-1.602c-0.802-0.904-2.558-0.751-4.106-0.611
			c-0.241,0.021-0.474,0.04-0.688,0.056c-0.396,0.027-0.709-0.077-0.838-0.279c-0.078-0.123-0.081-0.271-0.006-0.406
			c0.144-0.263,0.524-0.417,1.022-0.417c5.102,0,8.357,3.38,9.234,4.417c0.001,0,0.001,0.003,0.001,0.003l0,0l0.001-0.003
			c0.879-1.037,4.132-4.417,9.235-4.417c0.496,0,0.88,0.154,1.021,0.417c0.075,0.134,0.073,0.283-0.005,0.406
			c-0.13,0.202-0.441,0.306-0.836,0.279c-0.215-0.016-0.447-0.034-0.689-0.056c-1.548-0.14-3.306-0.293-4.106,0.611
			C134.381,75.106,134.271,75.646,134.413,76.309z"/>
		<path fill="#FFFFFF" d="M216.141,72.858c-0.325-0.48-1.034-0.612-1.511-0.283l-2.407,1.643c-0.492,0.339-0.622,1.015-0.286,1.509
			l2.603,3.813c0.206,0.295,0.543,0.472,0.901,0.472c0.22,0,0.431-0.065,0.613-0.188l2.405-1.647c0.242-0.162,0.4-0.41,0.455-0.694
			c0.056-0.288-0.009-0.575-0.172-0.813L216.141,72.858z M217.945,77.427l-2.409,1.644c-0.028,0.021-0.06,0.033-0.096,0.033
			c-0.029,0-0.099-0.009-0.146-0.079l-2.607-3.809c-0.053-0.08-0.029-0.189,0.048-0.242l2.411-1.647
			c0.028-0.019,0.062-0.03,0.099-0.03c0.054,0,0.107,0.027,0.143,0.076l2.605,3.813c0.033,0.052,0.032,0.103,0.027,0.132
			C218.014,77.339,217.999,77.39,217.945,77.427z"/>
		<path fill="#FFFFFF" d="M221.07,76.167c0.219,0,0.431-0.066,0.611-0.188l2.408-1.647c0.492-0.336,0.621-1.013,0.281-1.507
			l-2.604-3.814c-0.324-0.477-1.027-0.61-1.508-0.283l-2.408,1.646c-0.492,0.335-0.619,1.013-0.284,1.508l2.606,3.812
			C220.375,75.99,220.711,76.167,221.07,76.167z M218.365,71.125l2.405-1.646c0.034-0.021,0.064-0.031,0.102-0.031
			c0.028,0,0.098,0.007,0.145,0.078l2.604,3.809c0.056,0.082,0.035,0.192-0.048,0.245l-2.407,1.647
			c-0.028,0.018-0.06,0.03-0.095,0.03c-0.029,0-0.101-0.009-0.147-0.078l-2.604-3.812C218.264,71.289,218.282,71.18,218.365,71.125z
			"/>
		<path fill="#FFFFFF" d="M225.801,71.847c0.202,0.297,0.536,0.474,0.896,0.474c0.219,0,0.431-0.066,0.613-0.191l2.405-1.645
			c0.492-0.336,0.623-1.015,0.286-1.506l-2.608-3.814c-0.325-0.476-1.024-0.61-1.504-0.284l-2.409,1.646
			c-0.241,0.163-0.402,0.412-0.455,0.697c-0.056,0.285,0.005,0.573,0.169,0.811L225.801,71.847z M223.992,67.279l2.409-1.646
			c0.027-0.02,0.062-0.03,0.101-0.03c0.027,0,0.092,0.007,0.143,0.077l2.604,3.811c0.056,0.08,0.032,0.189-0.045,0.244l-2.412,1.647
			c-0.075,0.051-0.188,0.029-0.242-0.049l-2.605-3.812c-0.03-0.05-0.027-0.102-0.021-0.128
			C223.924,67.365,223.938,67.316,223.992,67.279z"/>
		<path fill="#FFFFFF" d="M231.43,68.001c0.2,0.295,0.539,0.474,0.896,0.474c0.22,0,0.432-0.065,0.611-0.189l2.408-1.646
			c0.241-0.162,0.401-0.412,0.454-0.695c0.053-0.283-0.004-0.573-0.171-0.812l-2.604-3.812c-0.324-0.477-1.028-0.611-1.507-0.285
			l-2.41,1.646c-0.239,0.164-0.401,0.411-0.454,0.696c-0.053,0.283,0.009,0.574,0.172,0.812L231.43,68.001z M229.621,63.433
			l2.404-1.646c0.036-0.019,0.067-0.03,0.102-0.03c0.027,0,0.099,0.006,0.147,0.077l2.604,3.812c0.035,0.052,0.029,0.104,0.028,0.13
			c-0.005,0.027-0.022,0.076-0.072,0.112l-2.411,1.644c-0.029,0.022-0.06,0.033-0.098,0.033c-0.028,0-0.098-0.008-0.145-0.076
			l-2.607-3.813c-0.033-0.053-0.027-0.104-0.024-0.131S229.568,63.467,229.621,63.433z"/>
		<path fill="#FFFFFF" d="M217.439,105.917c0.205,0.297,0.537,0.477,0.896,0.477c0.219,0,0.431-0.066,0.614-0.19l2.404-1.644
			c0.242-0.167,0.403-0.412,0.458-0.697c0.053-0.285-0.009-0.574-0.171-0.812l-2.605-3.812c-0.328-0.475-1.026-0.61-1.511-0.283
			l-2.405,1.646c-0.494,0.335-0.625,1.011-0.286,1.509L217.439,105.917z M215.633,101.351l2.407-1.645
			c0.029-0.021,0.062-0.031,0.097-0.031c0.03,0,0.099,0.006,0.146,0.077l2.605,3.812c0.035,0.052,0.032,0.104,0.029,0.13
			c-0.006,0.029-0.021,0.077-0.074,0.111l-2.409,1.645c-0.027,0.022-0.064,0.033-0.099,0.033c-0.026,0-0.097-0.008-0.145-0.078
			l-2.604-3.812C215.53,101.516,215.551,101.405,215.633,101.351z"/>
		<path fill="#FFFFFF" d="M224.664,95.393c-0.327-0.479-1.033-0.61-1.509-0.283l-2.41,1.644c-0.489,0.337-0.619,1.012-0.281,1.508
			l2.604,3.812c0.201,0.299,0.538,0.476,0.896,0.476c0.219,0,0.432-0.067,0.611-0.191l2.408-1.645
			c0.239-0.162,0.399-0.409,0.455-0.697c0.053-0.281-0.007-0.573-0.173-0.81L224.664,95.393z M226.47,99.96l-2.407,1.645
			c-0.032,0.021-0.062,0.031-0.099,0.031c-0.028,0-0.097-0.008-0.144-0.076l-2.606-3.812c-0.055-0.079-0.034-0.188,0.049-0.242
			l2.407-1.646c0.031-0.021,0.062-0.03,0.1-0.03c0.057,0,0.109,0.027,0.142,0.077l2.605,3.812c0.032,0.051,0.032,0.104,0.027,0.129
			C226.54,99.874,226.523,99.923,226.47,99.96z"/>
		<path fill="#FFFFFF" d="M230.293,91.545c-0.329-0.478-1.028-0.612-1.513-0.285l-2.406,1.648c-0.49,0.337-0.62,1.011-0.282,1.506
			l2.605,3.813c0.203,0.296,0.535,0.473,0.896,0.473c0.218,0,0.43-0.064,0.613-0.187l2.405-1.648
			c0.496-0.336,0.621-1.013,0.285-1.507L230.293,91.545z M232.102,96.113l-2.41,1.646c-0.031,0.021-0.064,0.032-0.099,0.032
			c-0.025,0-0.099-0.009-0.146-0.078l-2.603-3.81c-0.057-0.082-0.033-0.191,0.045-0.244l2.406-1.646
			c0.031-0.02,0.065-0.031,0.101-0.031c0.026,0,0.095,0.009,0.145,0.075l2.605,3.814C232.196,95.95,232.179,96.06,232.102,96.113z"
			/>
		<path fill="#FFFFFF" d="M234.412,87.414l-2.407,1.647c-0.241,0.163-0.404,0.412-0.455,0.697c-0.053,0.284,0.009,0.571,0.173,0.811
			l2.604,3.812c0.2,0.296,0.536,0.474,0.895,0.474c0.219,0,0.431-0.067,0.61-0.19l2.408-1.647c0.495-0.336,0.62-1.013,0.286-1.508
			l-2.608-3.812C235.596,87.224,234.894,87.087,234.412,87.414z M235.023,88.136c0.028,0,0.098,0.009,0.146,0.079l2.604,3.81
			c0.053,0.08,0.032,0.188-0.045,0.243l-2.41,1.646c-0.076,0.055-0.191,0.031-0.242-0.046l-2.604-3.814
			c-0.036-0.051-0.033-0.101-0.027-0.128c0.003-0.026,0.019-0.078,0.074-0.111l2.407-1.646
			C234.955,88.147,234.988,88.136,235.023,88.136z"/>
		<path fill="#FFFFFF" d="M239.954,90.536c0.202,0.296,0.536,0.473,0.896,0.473c0.219,0,0.432-0.064,0.611-0.189l2.407-1.646
			c0.241-0.163,0.398-0.41,0.456-0.694c0.055-0.286-0.011-0.577-0.172-0.812l-2.604-3.812c-0.324-0.477-1.029-0.614-1.508-0.287
			l-2.41,1.647c-0.237,0.163-0.401,0.41-0.452,0.694c-0.054,0.284,0.007,0.574,0.169,0.812L239.954,90.536z M238.071,86.078
			c0.006-0.025,0.023-0.074,0.073-0.114l2.411-1.642c0.029-0.022,0.062-0.032,0.097-0.032c0.028,0,0.098,0.009,0.146,0.077
			l2.605,3.812c0.035,0.054,0.034,0.104,0.029,0.131c-0.006,0.026-0.023,0.076-0.076,0.112l-2.407,1.646
			c-0.033,0.021-0.063,0.03-0.099,0.03c-0.027,0-0.098-0.007-0.146-0.076l-2.604-3.814
			C238.062,86.158,238.065,86.105,238.071,86.078z"/>
		<path fill="#FFFFFF" d="M264.888,51.233l-15.822-3.884l8.55,8.395L264.888,51.233z M262.438,51.623l-4.69,2.911l-5.514-5.416
			L262.438,51.623z"/>
		<path fill="#FFFFFF" d="M298.666,70.138c2.809,0,5.09-2.286,5.09-5.092c0-2.808-2.281-5.091-5.09-5.091
			c-2.806,0-5.086,2.283-5.086,5.091C293.58,67.852,295.86,70.138,298.666,70.138z M298.666,60.976c2.245,0,4.07,1.827,4.07,4.07
			c0,2.243-1.825,4.067-4.07,4.067c-2.242,0-4.066-1.824-4.066-4.067C294.6,62.802,296.424,60.976,298.666,60.976z"/>
		<path fill="#FFFFFF" d="M285.936,69.333c1.972,0,3.575-1.602,3.575-3.572c0-1.97-1.604-3.574-3.575-3.574
			c-1.967,0-3.573,1.604-3.573,3.574C282.362,67.73,283.969,69.333,285.936,69.333z M285.936,63.116
			c1.462,0,2.646,1.186,2.646,2.645c0,1.458-1.184,2.645-2.646,2.645c-1.459,0-2.643-1.188-2.643-2.645
			C283.293,64.302,284.477,63.116,285.936,63.116z"/>
		<path fill="#FFFFFF" d="M286.693,70.757c-1.971,0-3.573,1.604-3.573,3.575c0,1.97,1.603,3.571,3.573,3.571
			s3.575-1.601,3.575-3.571C290.269,72.361,288.664,70.757,286.693,70.757z M286.693,76.976c-1.458,0-2.646-1.186-2.646-2.643
			c0-1.46,1.188-2.646,2.646-2.646s2.643,1.186,2.643,2.646C289.336,75.79,288.151,76.976,286.693,76.976z"/>
		<path fill="#FFFFFF" d="M293.499,83.618c1.972,0,3.573-1.603,3.573-3.571c0-1.974-1.602-3.576-3.573-3.576
			c-1.966,0-3.573,1.602-3.573,3.576C289.926,82.016,291.533,83.618,293.499,83.618z M293.499,77.401
			c1.458,0,2.646,1.184,2.646,2.646c0,1.456-1.188,2.642-2.646,2.642c-1.457,0-2.646-1.186-2.646-2.642
			C290.854,78.585,292.042,77.401,293.499,77.401z"/>
		<path fill="#FFFFFF" d="M298.917,79.287c0,1.971,1.604,3.576,3.572,3.576c1.971,0,3.574-1.604,3.574-3.576
			c0-1.968-1.604-3.571-3.574-3.571C300.521,75.715,298.917,77.318,298.917,79.287z M305.136,79.287c0,1.46-1.188,2.646-2.646,2.646
			c-1.454,0-2.644-1.186-2.644-2.646c0-1.458,1.189-2.644,2.644-2.644C303.947,76.643,305.136,77.829,305.136,79.287z"/>
		<path fill="#FFFFFF" d="M309.969,77.735c1.969,0,3.574-1.603,3.574-3.571c0-1.972-1.605-3.576-3.574-3.576
			c-1.971,0-3.575,1.604-3.575,3.576C306.394,76.132,307.998,77.735,309.969,77.735z M309.969,71.518
			c1.457,0,2.644,1.188,2.644,2.646c0,1.457-1.187,2.643-2.644,2.643c-1.46,0-2.644-1.186-2.644-2.643
			C307.325,72.705,308.509,71.518,309.969,71.518z"/>
		<path fill="#FFFFFF" d="M314.085,62.943c-1.97,0-3.573,1.602-3.573,3.572c0,1.972,1.604,3.576,3.573,3.576
			c1.971,0,3.576-1.604,3.576-3.576C317.661,64.545,316.056,62.943,314.085,62.943z M314.085,69.161
			c-1.458,0-2.643-1.187-2.643-2.646c0-1.458,1.185-2.644,2.643-2.644c1.459,0,2.645,1.186,2.645,2.644
			C316.729,67.974,315.544,69.161,314.085,69.161z"/>
		<path fill="#FFFFFF" d="M313.832,61.436c1.973,0,3.573-1.604,3.573-3.572c0-1.973-1.601-3.575-3.573-3.575
			c-1.968,0-3.571,1.602-3.571,3.575C310.261,59.832,311.864,61.436,313.832,61.436z M313.832,55.218
			c1.46,0,2.648,1.185,2.648,2.646c0,1.457-1.188,2.642-2.648,2.642c-1.456,0-2.642-1.186-2.642-2.642
			C311.19,56.402,312.376,55.218,313.832,55.218z"/>
	</g>
</g>
</svg>
